<?xml version="1.0" encoding="utf-8"?>
<!-- Generator: Adobe Illustrator 22.0.1, SVG Export Plug-In . SVG Version: 6.00 Build 0)  -->
<svg version="1.1" id="Layer_1" xmlns="http://www.w3.org/2000/svg" xmlns:xlink="http://www.w3.org/1999/xlink" x="0px" y="0px"
	 viewBox="0 0 122.1 239.7" style="enable-background:new 0 0 122.1 239.7;" xml:space="preserve">
<style type="text/css">
	.st0{fill:none;stroke:#7FB087;stroke-width:5.9641;stroke-miterlimit:10;}
	.st1{fill:#E1C46E;stroke:#E1C46E;stroke-width:9;stroke-linejoin:round;stroke-miterlimit:10;}
	.st2{fill:#435058;}
</style>
<g>
	<g>
		<path class="st0" d="M32.6,23.2c0,0,7.5-23.9,41.7-16.4c0,0,20.9,3,22.4,35.8c0,0,14.9,8.9,7.5,23.9c0,0-10.4,13.4-23.9,1.5
			c0,0-19.4,10.4-31.3,0c0,0-22.4,10.4-25.3-11.9c0,0-8.9-4.5-8.9-14.9C14.7,41,13.2,27.6,32.6,23.2z"/>
		<path class="st0" d="M51.9,24.6c0,0-10.4,4.5-1.5,10.4c0,0-6,17.9,10.4,20.9c0,0,17.9,0,14.9-16.4"/>
		<line class="st0" x1="62.9" y1="72.8" x2="62.4" y2="114.1"/>
		<path class="st0" d="M44.5,70.9c0,0,0.5,20.4,18.1,20.6c0,0,19.1,0.2,19.1-20.6"/>
	</g>
	<g>
		<rect x="6" y="119.1" class="st1" width="111" height="111"/>
		<path class="st2" d="M26,129.1h2.4l14.2,36.1h-2.4l-4.5-11.6H18.4l-4.6,11.6h-2.4L26,129.1z M35,151.7l-7.7-20.4h-0.1l-8,20.4H35z
			"/>
		<path class="st2" d="M71.3,139.4c-0.1-1.5-0.4-2.9-1-4c-0.6-1.1-1.4-2.1-2.4-2.9c-1-0.8-2.2-1.4-3.6-1.7c-1.4-0.4-2.9-0.6-4.6-0.6
			c-1,0-2.1,0.1-3.3,0.4c-1.2,0.2-2.2,0.6-3.2,1.2c-1,0.6-1.8,1.4-2.5,2.4c-0.6,1-1,2.2-1,3.7c0,1.4,0.4,2.6,1.1,3.5
			c0.7,0.9,1.6,1.6,2.8,2.2c1.1,0.6,2.5,1,3.9,1.3c1.5,0.3,3,0.7,4.5,1c1.5,0.3,3.1,0.7,4.5,1.1s2.8,1,3.9,1.7
			c1.2,0.7,2.1,1.7,2.8,2.8c0.7,1.2,1.1,2.6,1.1,4.4c0,1.9-0.4,3.5-1.2,4.7c-0.8,1.3-1.8,2.3-3.1,3.1c-1.2,0.8-2.6,1.4-4.1,1.7
			c-1.5,0.4-2.9,0.5-4.3,0.5c-2.1,0-4.1-0.2-6-0.7c-1.9-0.5-3.5-1.2-4.9-2.2c-1.4-1-2.5-2.3-3.3-4c-0.8-1.6-1.2-3.6-1.1-5.9h2.2
			c-0.1,2,0.2,3.7,0.9,5s1.6,2.5,2.8,3.4s2.6,1.5,4.2,1.9c1.6,0.4,3.3,0.6,5.1,0.6c1.1,0,2.2-0.1,3.5-0.4c1.2-0.3,2.4-0.7,3.4-1.4
			c1-0.6,1.9-1.5,2.6-2.5c0.7-1,1-2.4,1-3.9c0-1.5-0.4-2.8-1.1-3.7c-0.7-1-1.6-1.7-2.8-2.3c-1.2-0.6-2.5-1.1-3.9-1.4
			c-1.5-0.4-3-0.7-4.5-1c-1.5-0.3-3-0.7-4.5-1.1c-1.5-0.4-2.8-1-3.9-1.6c-1.1-0.7-2.1-1.6-2.8-2.7c-0.7-1.1-1.1-2.5-1.1-4.2
			c0-1.7,0.4-3.2,1.1-4.4c0.7-1.2,1.7-2.2,2.8-3c1.2-0.8,2.5-1.3,3.9-1.7c1.4-0.4,2.9-0.5,4.3-0.5c1.9,0,3.6,0.2,5.3,0.6
			c1.6,0.4,3.1,1.1,4.3,2s2.2,2,3,3.5c0.7,1.4,1.2,3.1,1.3,5.1H71.3z"/>
		<path class="st2" d="M82.1,129.1h2.2v16.4h23v-16.4h2.2v36.1h-2.2v-17.8h-23v17.8h-2.2V129.1z"/>
		<path class="st2" d="M11.4,183.5v-1.9h31.8v1.9H29.1v34.2h-2.2v-34.2H11.4z"/>
		<path class="st2" d="M59.5,181.6h2.4l14.2,36.1h-2.4l-4.5-11.6H52l-4.6,11.6H45L59.5,181.6z M68.5,204.2l-7.7-20.4h-0.1l-8,20.4
			H68.5z"/>
		<path class="st2" d="M79.1,199.8c0-2.6,0.4-5,1.1-7.3c0.8-2.3,1.9-4.3,3.3-6.1c1.4-1.8,3.2-3.1,5.3-4.2s4.5-1.5,7.2-1.5
			c1.9,0,3.6,0.3,5.3,0.8c1.7,0.5,3.2,1.3,4.5,2.4c1.3,1,2.5,2.3,3.4,3.8c0.9,1.5,1.5,3.2,1.8,5.1H109c-0.8-3.2-2.4-5.6-4.5-7.4
			c-2.2-1.8-5-2.7-8.3-2.7c-2.4,0-4.6,0.5-6.4,1.4c-1.9,0.9-3.4,2.2-4.6,3.8c-1.2,1.6-2.2,3.4-2.8,5.5c-0.6,2.1-1,4.2-1,6.5
			c0,2.3,0.3,4.5,0.9,6.5c0.6,2,1.5,3.8,2.8,5.3c1.2,1.5,2.8,2.7,4.6,3.6c1.9,0.9,4,1.3,6.5,1.3c2.2,0,4.1-0.4,5.8-1.1
			c1.7-0.7,3.2-1.7,4.4-3c1.2-1.3,2.1-2.8,2.7-4.6c0.6-1.8,0.9-3.8,0.8-6H96.5V200h15.2v17.7h-1.9V210h-0.1c-0.4,1.3-1.1,2.5-2,3.6
			c-0.9,1.1-1.9,2-3.1,2.7c-1.2,0.7-2.5,1.3-4,1.7c-1.5,0.4-3,0.6-4.6,0.6c-2.7,0-5.1-0.5-7.2-1.5c-2.1-1-3.9-2.3-5.3-4
			c-1.4-1.7-2.5-3.7-3.3-5.9C79.5,204.9,79.1,202.4,79.1,199.8z"/>
	</g>
</g>
</svg>
